<svg id="Layer_1" data-name="Layer 1" xmlns="http://www.w3.org/2000/svg" viewBox="0 0 371.96 164.19"><defs><style>.cls-1{fill:#515054;}.cls-2{fill:#617e53;}.cls-2,.cls-3,.cls-4,.cls-5{fill-rule:evenodd;}.cls-3{fill:#9bb991;}.cls-4{fill:#86a97b;}.cls-5{fill:#769965;}</style></defs><rect class="cls-1" x="90.88" y="24.46" width="1.35" height="117.84"/><path class="cls-1" d="M157.84,46.29V95H146.29V75.27H129.18V95H117.62V46.29h11.56V65h17.11V46.29Z"/><path class="cls-1" d="M195,45.29,213.92,95H201.55L198,84.82H182.07L178.57,95H166.21l18.92-49.71Zm-9.62,30.16h9.37L190.06,62Z"/><path class="cls-1" d="M232,96,213.1,46.29h12.36l11.49,33,11.5-33h12.36L241.89,96Z"/><path class="cls-1" d="M304.71,46.29v10.3H280.92V65h20.42V75.27H280.92V84.7h25V95h-36.6V46.29Z"/><path class="cls-1" d="M342.8,67.77l4.5,6.81-.07-9.06V46.29h11.56V95H348.11l-14.8-21.48-4.5-6.81.06,9.05V95H317.32V46.29H328Z"/><path class="cls-1" d="M123.46,109.47h1.47l4.49,11.82h-1.61l-1.24-3.36h-4.75l-1.24,3.36H119Zm.73,1.9-1.89,5.24h3.79Z"/><path class="cls-1" d="M136.65,121.29h-1.49V111h-3.6v-1.38h8.69V111h-3.6Z"/><path class="cls-1" d="M150.41,121.29V109.63h4.72c1.42,0,3.37.53,3.37,3.1a2.47,2.47,0,0,1-1.39,2.48c1,.22,1.79,1.18,1.79,2.81,0,2.72-1.79,3.27-3.68,3.27Zm1.5-10.28v3.63H155c1.15,0,2-.36,2-1.85s-.78-1.78-2-1.78Zm3.19,8.91c.89,0,2.25-.09,2.25-1.92s-1.22-2-2.19-2h-3.25v3.92Z"/><path class="cls-1" d="M165.6,121.29h-1.49V109.63h1.49Z"/><path class="cls-1" d="M172.75,121.29h-1.5V109.63h4.66c1.87,0,3.81.59,3.81,3.38a2.91,2.91,0,0,1-2.55,3.27l3.05,5h-1.84l-2.82-4.89h-2.81Zm3.31-6.26c.9,0,2.11-.14,2.11-2s-1.21-2-2.11-2h-3.31v4Z"/><path class="cls-1" d="M186.3,115.43l5.33-5.8h2.11l-5,5.26,5.32,6.4h-2L187.7,116l-1.4,1.5v3.81h-1.5V109.63h1.5Z"/><path class="cls-1" d="M198.43,121.29V109.63h4c3.52,0,5.36,1.81,5.36,5.83s-1.84,5.83-5.36,5.83Zm4-1.37c2.81,0,3.82-1.74,3.82-4.46s-1-4.45-3.82-4.45h-2.5v8.91Z"/><path class="cls-1" d="M216,109.47h1.46l4.5,11.82h-1.62l-1.24-3.36h-4.75l-1.24,3.36h-1.61Zm.73,1.9-1.9,5.24h3.8Z"/><path class="cls-1" d="M227.86,119.92h5.91v1.37h-7.41V109.63h1.5Z"/><path class="cls-1" d="M246.17,109.63V111h-6.53v3.63h5.89V116h-5.89v3.92h6.83v1.37h-8.32V109.63Z"/><path class="cls-1" d="M262.43,121.47H261l-4.48-11.84h1.6l2.69,7.34.92,2.62.93-2.62,2.69-7.34h1.61Z"/><path class="cls-1" d="M273.08,121.29h-1.5V109.63h1.5Z"/><path class="cls-1" d="M280.22,119.92h5.92v1.37h-7.42V109.63h1.5Z"/><path class="cls-1" d="M292,119.92h5.92v1.37h-7.41V109.63H292Z"/><path class="cls-1" d="M305.79,109.47h1.47l4.5,11.82h-1.62l-1.24-3.36h-4.75l-1.24,3.36H301.3Zm.74,1.9-1.9,5.24h3.79Z"/><path class="cls-1" d="M320.61,109.45c2.92,0,4.29,1.35,4.55,3.28l-1.53.16c-.22-1.45-1.16-2.08-3-2.08-2.8,0-3.54,2.17-3.54,4.65s.74,4.63,3.54,4.65a5.71,5.71,0,0,0,3.07-.75v-3h-2.51v-1.3h4v5.17a7.73,7.73,0,0,1-4.56,1.2c-3.53,0-5.07-2.36-5.07-6S317.07,109.45,320.61,109.45Z"/><path class="cls-1" d="M338.5,109.63V111H332v3.63h5.89V116H332v3.92h6.83v1.37h-8.33V109.63Z"/><path class="cls-2" d="M14.79,94.19V82.91h0V48.47h0a2.37,2.37,0,0,1,.63-1.56,3,3,0,0,1,1.11-.78,3.38,3.38,0,0,1,1.33-.25,3.08,3.08,0,0,1,.75.08,2.68,2.68,0,0,1,.82.31,4.94,4.94,0,0,1,.9.64l.18.16L35.72,60a.39.39,0,0,1,.15.31v59.81a.68.68,0,0,1,0,.14.36.36,0,0,1-.1.14.42.42,0,0,1-.17.1h-.27l-.41-.06c-.21,0-.43-.07-.64-.12a17.36,17.36,0,0,1-2.83-.84A30,30,0,0,1,28.16,118a26.9,26.9,0,0,1-3.43-2.19A25.69,25.69,0,0,1,21.54,113a25.43,25.43,0,0,1-2.74-3.53A24.21,24.21,0,0,1,17,106.1a24.91,24.91,0,0,1-1.52-4.56,24.07,24.07,0,0,1-.42-2.4h0c-.12-.89-.18-1.69-.22-2.49s-.06-1.6-.06-2.46Z"/><path class="cls-3" d="M41.7,65.14l1.94,1.66,1.58,1.35,1.19,1,1.48,1.26,1,.84.85.7.56.46h0l0,0a.38.38,0,0,1,.09.24.41.41,0,0,1-.14.3l-.07.06-8.57,7.25-.08.07a.39.39,0,0,1-.52-.07.42.42,0,0,1-.09-.25V65.37h0a.36.36,0,0,1,.1-.25.36.36,0,0,1,.16-.11.39.39,0,0,1,.28,0,1.77,1.77,0,0,1,.17.12Z"/><path class="cls-4" d="M41.25,87.38l13-11,.1-.08.12-.11h0a.37.37,0,0,1,.14-.07.38.38,0,0,1,.34.06l.05,0,.83.66c.34.29.67.58,1,.89s.54.51.79.77.52.54.77.82l.65.75.07.09a.48.48,0,0,1,0,.29.39.39,0,0,1-.12.19l-.05,0L41.79,95.23l-.15.13a.4.4,0,0,1-.26.1.36.36,0,0,1-.32-.17.38.38,0,0,1-.07-.21V87.81a.46.46,0,0,1,0-.21.53.53,0,0,1,.11-.14l.11-.08Z"/><path class="cls-5" d="M41.26,102.37l.12-.1L61.68,85.1l.06,0,.07,0a.34.34,0,0,1,.2,0,.27.27,0,0,1,.12,0l.1.07a.58.58,0,0,1,.1.12l.05.12c.09.18.18.38.26.57s.24.55.35.83.27.69.39,1,.19.57.28.85.18.61.26.92.12.45.17.67l.12.51c0,.07,0,.14.05.21l0,.14a.36.36,0,0,0,0,.11.66.66,0,0,1,0,.14.31.31,0,0,1,0,.13.41.41,0,0,1-.1.13l0,0-22.46,19-.06,0a.37.37,0,0,1-.12.07.32.32,0,0,1-.17,0,.36.36,0,0,1-.19-.08.44.44,0,0,1-.12-.15.31.31,0,0,1,0-.13v-7.5a.83.83,0,0,1,0-.22.52.52,0,0,1,.12-.17l.12-.1Z"/><path class="cls-2" d="M41.39,117.52,63,99.25l.77-.66a1.93,1.93,0,0,1,.21-.17.52.52,0,0,1,.18-.1.39.39,0,0,1,.28.05.37.37,0,0,1,.13.12.37.37,0,0,1,0,.11.76.76,0,0,1,0,.15l0,.29c0,.36-.1.71-.15,1.06-.12.65-.26,1.31-.42,2a25,25,0,0,1-10.11,14.52,24.71,24.71,0,0,1-4.28,2.35,24.76,24.76,0,0,1-8.09,2h-.17a.4.4,0,0,1-.15,0,.41.41,0,0,1-.13-.1.24.24,0,0,1-.07-.12.53.53,0,0,1,0-.12V118a.35.35,0,0,1,0-.18.47.47,0,0,1,.09-.12l.14-.12.12-.1Z"/></svg>