<svg id="Layer_1" data-name="Layer 1" xmlns="http://www.w3.org/2000/svg" viewBox="0 0 288 216"><defs><style>.cls-1,.cls-2{fill:#fff;}.cls-2{fill-rule:evenodd;}</style></defs><path class="cls-1" d="M57.74,109.94v52.29H45.33V141.05H27v21.18H14.56V109.94H27V130H45.33V109.94Z"/><path class="cls-1" d="M97.62,108.87l20.31,53.36H104.66l-3.83-10.93H83.74L80,162.23H66.71L87,108.87ZM87.29,141.25H97.35l-5-14.48Z"/><path class="cls-1" d="M137.36,163.31l-20.31-53.37h13.27l12.34,35.47L155,109.94h13.27L148,163.31Z"/><path class="cls-1" d="M215.39,109.94V121H189.85v9h21.92v11.06H189.85v10.12h26.88v11.06H177.44V109.94Z"/><path class="cls-1" d="M256.28,133l4.82,7.31-.07-9.72V109.94h12.41v52.29H262l-15.89-23.06-4.82-7.31.07,9.72v20.65H228.92V109.94h11.47Z"/><rect class="cls-1" x="48.97" y="93.98" width="190.07" height="1.47"/><path class="cls-1" d="M30.5,177.76h1.57l4.83,12.69H35.16l-1.33-3.61h-5.1l-1.33,3.61H25.67Zm.78,2-2,5.63h4.07Z"/><path class="cls-1" d="M44.66,190.45H43.05v-11H39.19v-1.48h9.33v1.48H44.66Z"/><path class="cls-1" d="M59.43,190.45V177.94h5.06c1.53,0,3.61.56,3.61,3.32a2.62,2.62,0,0,1-1.49,2.66c1,.24,1.93,1.27,1.93,3,0,2.92-1.93,3.51-4,3.51Zm1.6-11v3.89h3.3c1.24,0,2.11-.38,2.11-2s-.84-1.9-2.11-1.9ZM64.46,189c1,0,2.41-.1,2.41-2.06s-1.3-2.15-2.34-2.15H61V189Z"/><path class="cls-1" d="M75.73,190.45h-1.6V177.94h1.6Z"/><path class="cls-1" d="M83.4,190.45H81.8V177.94h5c2,0,4.09.63,4.09,3.63,0,2.34-1.25,3.24-2.74,3.51l3.27,5.37h-2l-3-5.24h-3ZM87,183.73c1,0,2.26-.14,2.26-2.16s-1.3-2.15-2.26-2.15H83.4v4.31Z"/><path class="cls-1" d="M97.94,184.16l5.73-6.22h2.26l-5.37,5.65,5.71,6.86h-2.18l-4.64-5.69-1.51,1.6v4.09h-1.6V177.94h1.6Z"/><path class="cls-1" d="M111,190.45V177.94h4.28c3.78,0,5.76,1.94,5.76,6.26s-2,6.25-5.76,6.25Zm4.28-1.47c3,0,4.11-1.86,4.11-4.78s-1.1-4.78-4.11-4.78h-2.68V189Z"/><path class="cls-1" d="M129.86,177.76h1.57l4.83,12.69h-1.73l-1.34-3.61h-5.1l-1.33,3.61H125Zm.78,2-2,5.63h4.07Z"/><path class="cls-1" d="M142.56,189h6.35v1.47h-8V177.94h1.61Z"/><path class="cls-1" d="M162.22,177.94v1.48h-7v3.89h6.32v1.46h-6.32V189h7.33v1.47h-8.93V177.94Z"/><path class="cls-1" d="M179.67,190.64h-1.58l-4.81-12.7H175l2.89,7.88,1,2.8,1-2.8,2.88-7.88h1.74Z"/><path class="cls-1" d="M191.1,190.45h-1.61V177.94h1.61Z"/><path class="cls-1" d="M198.76,189h6.36v1.47h-8V177.94h1.6Z"/><path class="cls-1" d="M211.42,189h6.35v1.47h-8V177.94h1.61Z"/><path class="cls-1" d="M226.22,177.76h1.57l4.83,12.69h-1.73l-1.34-3.61h-5.1l-1.33,3.61h-1.73Zm.78,2-2,5.63H229Z"/><path class="cls-1" d="M242.13,177.75c3.13,0,4.6,1.44,4.87,3.51l-1.63.18c-.24-1.56-1.25-2.23-3.24-2.23-3,0-3.8,2.32-3.8,5s.78,5,3.8,5a6.15,6.15,0,0,0,3.29-.81v-3.17h-2.7v-1.4H247v5.55a8.19,8.19,0,0,1-4.89,1.28c-3.78,0-5.44-2.53-5.44-6.44S238.33,177.75,242.13,177.75Z"/><path class="cls-1" d="M261.32,177.94v1.48h-7v3.89h6.32v1.46h-6.32V189h7.34v1.47h-8.94V177.94Z"/><path class="cls-2" d="M119.66,64.34V53.44h0V20.18h0a2.28,2.28,0,0,1,.6-1.51,3.06,3.06,0,0,1,1.07-.75,3.37,3.37,0,0,1,1.29-.25,3.55,3.55,0,0,1,.73.08,3.24,3.24,0,0,1,.79.3,5.56,5.56,0,0,1,.87.62l.18.15,14.68,12.53a.38.38,0,0,1,.15.3V89.43a.59.59,0,0,1,0,.13.36.36,0,0,1-.1.14.32.32,0,0,1-.16.09h-.26c-.14,0-.27,0-.39-.06l-.63-.11a17.13,17.13,0,0,1-2.73-.81,28,28,0,0,1-3.16-1.43,25.1,25.1,0,0,1-3.31-2.12,24.37,24.37,0,0,1-5.73-6.2,23.08,23.08,0,0,1-1.73-3.21,24.55,24.55,0,0,1-1.47-4.41c-.17-.76-.31-1.54-.41-2.32h0c-.11-.85-.17-1.63-.21-2.4s0-1.55,0-2.38Z"/><path class="cls-2" d="M145.65,36.28l1.87,1.6,1.53,1.3,1.15,1,1.43,1.21c.33.27.65.55,1,.81l.82.68.54.44h0l0,0a.35.35,0,0,1,.09.23.39.39,0,0,1-.13.29l-.08.06-8.27,7-.08.06a.38.38,0,0,1-.21.07.39.39,0,0,1-.29-.14.36.36,0,0,1-.08-.23V36.5h0a.38.38,0,0,1,.09-.24.31.31,0,0,1,.15-.1.36.36,0,0,1,.27,0,1,1,0,0,1,.17.12Z"/><path class="cls-2" d="M145.22,57.76l12.57-10.64.1-.08.12-.1h0a.35.35,0,0,1,.13-.08.39.39,0,0,1,.33.06l0,0c.28.2.54.42.8.64s.65.56,1,.85.51.49.76.75.5.52.74.79.42.47.62.72l.07.09a.35.35,0,0,1,0,.28.42.42,0,0,1-.11.18l0,0-16.61,14-.14.12a.36.36,0,0,1-.25.1.36.36,0,0,1-.37-.37V58.38c0-.06,0-.13,0-.2a.72.72,0,0,1,0-.21.41.41,0,0,1,.1-.13l.11-.08Z"/><path class="cls-2" d="M145.23,72.24l.11-.1L165,55.56l.06-.05.06,0a.43.43,0,0,1,.19,0,.53.53,0,0,1,.12,0l.1.07a.34.34,0,0,1,.09.12l.06.11c.09.18.17.37.25.56s.23.53.33.79.26.67.38,1,.19.55.27.82.18.59.25.89.12.43.17.65.08.33.11.49,0,.14.05.21l0,.13a.52.52,0,0,0,0,.11v.13a.27.27,0,0,1,0,.12.31.31,0,0,1-.1.13l0,0-21.7,18.36,0,0-.12.07a.33.33,0,0,1-.17,0,.67.67,0,0,1-.18-.07.48.48,0,0,1-.12-.16.5.5,0,0,1,0-.12V72.72a.78.78,0,0,1,0-.22.61.61,0,0,1,.12-.16l.12-.1Z"/><path class="cls-2" d="M145.35,86.88l20.86-17.65.75-.63.2-.18a.56.56,0,0,1,.17-.09.39.39,0,0,1,.28,0,.31.31,0,0,1,.12.11.54.54,0,0,1,.05.11.66.66,0,0,1,0,.14l0,.29c0,.34-.09.68-.15,1-.11.63-.24,1.26-.4,1.88a23.93,23.93,0,0,1-2.3,5.82,23.68,23.68,0,0,1-3.08,4.34A24,24,0,0,1,157.45,86a23.5,23.5,0,0,1-4.14,2.28,23.88,23.88,0,0,1-4.44,1.41,22.58,22.58,0,0,1-3.37.47h-.17a.35.35,0,0,1-.14,0,.38.38,0,0,1-.13-.09.35.35,0,0,1-.07-.12.36.36,0,0,1,0-.11v-2.4a.33.33,0,0,1,0-.17.44.44,0,0,1,.09-.11.69.69,0,0,1,.13-.11l.12-.1Z"/></svg>