<svg id="Layer_1" data-name="Layer 1" xmlns="http://www.w3.org/2000/svg" viewBox="0 0 288 216"><defs><style>.cls-1{fill:#515054;}.cls-2{fill:#617e53;}.cls-2,.cls-3,.cls-4,.cls-5{fill-rule:evenodd;}.cls-3{fill:#9bb991;}.cls-4{fill:#86a97b;}.cls-5{fill:#769965;}</style></defs><path class="cls-1" d="M58.72,109.94v52.29H46.32V141.05H28v21.18H15.54V109.94H28V130H46.32V109.94Z"/><path class="cls-1" d="M98.6,108.87l20.31,53.36H105.64l-3.82-10.93H84.72L81,162.23H67.69L88,108.87ZM88.28,141.25h10l-5-14.48Z"/><path class="cls-1" d="M138.34,163.31,118,109.94H131.3l12.34,35.47L156,109.94h13.27l-20.31,53.37Z"/><path class="cls-1" d="M216.37,109.94V121H190.83v9h21.92v11.06H190.83v10.12h26.88v11.06H178.43V109.94Z"/><path class="cls-1" d="M257.26,133l4.83,7.31-.07-9.72V109.94h12.4v52.29H263l-15.89-23.06-4.83-7.31.07,9.72v20.65H229.9V109.94h11.47Z"/><rect class="cls-1" x="49.95" y="93.98" width="190.07" height="1.47"/><path class="cls-1" d="M31.48,177.76h1.57l4.83,12.69H36.15l-1.33-3.61h-5.1l-1.34,3.61H26.65Zm.79,2-2,5.63H34.3Z"/><path class="cls-1" d="M45.64,190.45H44v-11H40.17v-1.48h9.34v1.48H45.64Z"/><path class="cls-1" d="M60.41,190.45V177.94h5.07c1.52,0,3.61.56,3.61,3.32a2.63,2.63,0,0,1-1.49,2.66c1,.24,1.92,1.27,1.92,3,0,2.92-1.92,3.51-4,3.51Zm1.6-11v3.89h3.31c1.23,0,2.1-.38,2.1-2s-.83-1.9-2.1-1.9ZM65.45,189c.94,0,2.4-.1,2.4-2.06s-1.3-2.15-2.34-2.15H62V189Z"/><path class="cls-1" d="M76.72,190.45H75.11V177.94h1.61Z"/><path class="cls-1" d="M84.38,190.45h-1.6V177.94h5c2,0,4.1.63,4.1,3.63,0,2.34-1.26,3.24-2.75,3.51l3.27,5.37h-2l-3-5.24h-3ZM88,183.73c1,0,2.26-.14,2.26-2.16s-1.3-2.15-2.26-2.15H84.38v4.31Z"/><path class="cls-1" d="M98.93,184.16l5.72-6.22h2.27l-5.38,5.65,5.71,6.86h-2.18l-4.63-5.69-1.51,1.6v4.09H97.32V177.94h1.61Z"/><path class="cls-1" d="M112,190.45V177.94h4.28c3.79,0,5.76,1.94,5.76,6.26s-2,6.25-5.76,6.25Zm4.28-1.47c3,0,4.11-1.86,4.11-4.78s-1.09-4.78-4.11-4.78h-2.68V189Z"/><path class="cls-1" d="M130.84,177.76h1.57l4.83,12.69h-1.73l-1.33-3.61h-5.1l-1.33,3.61H126Zm.79,2-2,5.63h4.07Z"/><path class="cls-1" d="M143.54,189h6.35v1.47h-7.95V177.94h1.6Z"/><path class="cls-1" d="M163.2,177.94v1.48h-7v3.89h6.32v1.46h-6.32V189h7.33v1.47h-8.93V177.94Z"/><path class="cls-1" d="M180.65,190.64h-1.57l-4.81-12.7H176l2.89,7.88,1,2.8,1-2.8,2.89-7.88h1.73Z"/><path class="cls-1" d="M192.08,190.45h-1.6V177.94h1.6Z"/><path class="cls-1" d="M199.75,189h6.35v1.47h-8V177.94h1.61Z"/><path class="cls-1" d="M212.4,189h6.35v1.47H210.8V177.94h1.6Z"/><path class="cls-1" d="M227.2,177.76h1.57l4.83,12.69h-1.73l-1.33-3.61h-5.1l-1.33,3.61h-1.74Zm.79,2-2,5.63H230Z"/><path class="cls-1" d="M243.11,177.75c3.13,0,4.61,1.44,4.88,3.51l-1.64.18c-.24-1.56-1.25-2.23-3.24-2.23-3,0-3.8,2.32-3.8,5s.79,5,3.8,5a6.15,6.15,0,0,0,3.29-.81v-3.17h-2.7v-1.4H248v5.55a8.2,8.2,0,0,1-4.89,1.28c-3.79,0-5.44-2.53-5.44-6.44S239.31,177.75,243.11,177.75Z"/><path class="cls-1" d="M262.31,177.94v1.48h-7v3.89h6.32v1.46H255.3V189h7.33v1.47h-8.94V177.94Z"/><path class="cls-2" d="M120.64,64.34V53.44h0V20.18h0a2.38,2.38,0,0,1,.6-1.51,3,3,0,0,1,1.08-.75,3.33,3.33,0,0,1,1.29-.25,3.53,3.53,0,0,1,.72.08,3.09,3.09,0,0,1,.79.3,5.13,5.13,0,0,1,.87.62l.18.15,14.68,12.53a.38.38,0,0,1,.15.3V89.43a.3.3,0,0,1,0,.13.34.34,0,0,1-.09.14.4.4,0,0,1-.17.09h-.26l-.39-.06-.63-.11a17.45,17.45,0,0,1-2.73-.81,27.11,27.11,0,0,1-3.15-1.43,24.59,24.59,0,0,1-6.4-4.91,23,23,0,0,1-2.64-3.41,24.24,24.24,0,0,1-1.74-3.21,23.75,23.75,0,0,1-1.46-4.41,20.1,20.1,0,0,1-.41-2.32h0c-.11-.85-.18-1.63-.22-2.4s0-1.55,0-2.38Z"/><path class="cls-3" d="M146.63,36.28l1.87,1.6,1.53,1.3,1.15,1,1.44,1.21c.32.27.64.55,1,.81l.82.68.54.44h0a.08.08,0,0,1,0,0,.35.35,0,0,1,.09.23.36.36,0,0,1-.13.29l-.07.06-8.28,7-.07.06a.41.41,0,0,1-.22.07.4.4,0,0,1-.29-.14.36.36,0,0,1-.08-.23V36.5h0a.38.38,0,0,1,.09-.24.34.34,0,0,1,.16-.1.36.36,0,0,1,.27,0,1,1,0,0,1,.16.12Z"/><path class="cls-4" d="M146.2,57.76l12.57-10.64.1-.08.12-.1h0a.39.39,0,0,1,.14-.08.38.38,0,0,1,.32.06l.05,0c.27.2.54.42.8.64s.65.56,1,.85.52.49.76.75.5.52.74.79.42.47.63.72l.07.09a.45.45,0,0,1,0,.28.36.36,0,0,1-.12.18l-.05,0-16.6,14-.14.12a.4.4,0,0,1-.26.1.36.36,0,0,1-.37-.37V58.38a1.33,1.33,0,0,1,0-.2.49.49,0,0,1,0-.21.41.41,0,0,1,.1-.13l.11-.08Z"/><path class="cls-5" d="M146.21,72.24l.12-.1,19.6-16.58.06-.05.06,0a.45.45,0,0,1,.2,0,.35.35,0,0,1,.11,0,.41.41,0,0,1,.11.07l.09.12.05.11c.09.18.17.37.25.56s.23.53.34.79.26.67.37,1,.19.55.27.82.18.59.26.89.11.43.16.65l.12.49c0,.07,0,.14,0,.21l0,.13s0,.07,0,.11,0,.08,0,.13a.56.56,0,0,1,0,.12.38.38,0,0,1-.09.13l0,0L146.62,80.18l-.06,0-.12.07a.3.3,0,0,1-.16,0,.48.48,0,0,1-.18-.07.31.31,0,0,1-.12-.16.27.27,0,0,1,0-.12V72.72a.53.53,0,0,1,0-.22.42.42,0,0,1,.11-.16l.12-.1Z"/><path class="cls-2" d="M146.34,86.88,167.2,69.23l.74-.63.2-.18a.61.61,0,0,1,.18-.09.37.37,0,0,1,.27,0,.25.25,0,0,1,.12.11.54.54,0,0,1,0,.11.66.66,0,0,1,0,.14c0,.1,0,.19,0,.29,0,.34-.1.68-.16,1-.11.63-.24,1.26-.4,1.88a24.15,24.15,0,0,1-9.76,14,23.5,23.5,0,0,1-4.14,2.28,23.78,23.78,0,0,1-4.43,1.41,22.53,22.53,0,0,1-3.38.47h-.17l-.14,0A.38.38,0,0,1,146,90a.35.35,0,0,1-.07-.12.36.36,0,0,1,0-.11v-2.4a.47.47,0,0,1,0-.17l.09-.11.13-.11.13-.1Z"/></svg>