<svg id="Layer_1" data-name="Layer 1" xmlns="http://www.w3.org/2000/svg" viewBox="0 0 216 216"><defs><style>.cls-1{fill:#617e53;}.cls-1,.cls-2,.cls-3,.cls-4{fill-rule:evenodd;}.cls-2{fill:#9bb991;}.cls-3{fill:#86a97b;}.cls-4{fill:#769965;}</style></defs><path class="cls-1" d="M54.33,131V104h0V21.8h0a5.7,5.7,0,0,1,1.49-3.72,7.19,7.19,0,0,1,2.65-1.85,8.37,8.37,0,0,1,5-.42,7.3,7.3,0,0,1,2,.73,12.56,12.56,0,0,1,2.15,1.55l.44.37,36.29,31a.92.92,0,0,1,.38.74V193a1.2,1.2,0,0,1-.06.33.93.93,0,0,1-.23.35,1,1,0,0,1-.41.23,1,1,0,0,1-.24,0c-.14,0-.28,0-.41,0l-1-.14c-.52-.08-1-.17-1.55-.28a41.54,41.54,0,0,1-6.75-2,69.27,69.27,0,0,1-7.8-3.54,60.35,60.35,0,0,1-8.18-5.23,58.7,58.7,0,0,1-7.63-6.9,60.38,60.38,0,0,1-6.53-8.42A59,59,0,0,1,56,148.51q-.64-2.83-1-5.73h0c-.26-2.11-.43-4-.52-5.93s-.13-3.83-.13-5.89Z"/><path class="cls-2" d="M118.56,61.61l4.63,4L127,68.78l2.84,2.43,3.55,3c.8.67,1.6,1.34,2.41,2l2,1.66,1.34,1.1h0l.1.1a1,1,0,0,1,.22.58.92.92,0,0,1-.33.71l-.18.15L118.51,97.85a1.22,1.22,0,0,1-.17.15.94.94,0,0,1-.54.18.9.9,0,0,1-.71-.34.92.92,0,0,1-.21-.58V62.16h0a.93.93,0,0,1,.22-.6,1,1,0,0,1,.39-.26.91.91,0,0,1,.67,0,1.57,1.57,0,0,1,.4.29Z"/><path class="cls-3" d="M117.5,114.69,148.58,88.4l.23-.21.3-.25h0a1.11,1.11,0,0,1,.34-.18.93.93,0,0,1,.8.15l.12.09c.67.5,1.33,1,2,1.57.82.68,1.61,1.39,2.38,2.11s1.28,1.22,1.89,1.85,1.23,1.29,1.82,2,1,1.17,1.55,1.77a2,2,0,0,1,.17.23,1,1,0,0,1,.08.68.88.88,0,0,1-.3.46l-.12.1-41,34.72-.35.29a.88.88,0,0,1-.63.26.9.9,0,0,1-.76-.41.88.88,0,0,1-.16-.51V116.24c0-.17,0-.35,0-.52a1.24,1.24,0,0,1,.1-.5.9.9,0,0,1,.26-.32l.26-.21Z"/><path class="cls-4" d="M117.53,150.49l.28-.24,48.45-41,.15-.12.16-.1a.9.9,0,0,1,.48-.09.74.74,0,0,1,.29.08,1,1,0,0,1,.25.16,1.11,1.11,0,0,1,.22.3c.05.09.09.18.13.27.23.45.43.91.63,1.37.29.66.56,1.31.83,2s.64,1.64.93,2.47c.23.67.45,1.35.67,2s.43,1.45.62,2.18c.15.53.28,1.07.41,1.61s.19.81.28,1.21l.12.51.06.33a2.56,2.56,0,0,1,0,.27c0,.11,0,.21,0,.32a1.09,1.09,0,0,1-.08.31.92.92,0,0,1-.24.31l-.09.08L118.53,170.1l-.14.11a1.28,1.28,0,0,1-.3.17.79.79,0,0,1-.4,0,.93.93,0,0,1-.45-.18.84.84,0,0,1-.29-.38.94.94,0,0,1-.07-.3V151.67a1.51,1.51,0,0,1,.07-.53,1.06,1.06,0,0,1,.29-.4,3.47,3.47,0,0,1,.29-.25Z"/><path class="cls-1" d="M117.84,186.66,169.39,143l1.85-1.57c.15-.12.31-.28.49-.42a1.26,1.26,0,0,1,.43-.22.9.9,0,0,1,.68.1.92.92,0,0,1,.3.29.83.83,0,0,1,.12.27,1,1,0,0,1,0,.35c0,.24,0,.47-.06.71-.08.84-.23,1.68-.37,2.51-.27,1.57-.6,3.13-1,4.67a59.69,59.69,0,0,1-24.13,34.65A60.21,60.21,0,0,1,137.5,190a59.34,59.34,0,0,1-19.3,4.65h-.42a.9.9,0,0,1-.66-.3.88.88,0,0,1-.18-.29,1.36,1.36,0,0,1-.06-.29v-5.91a1,1,0,0,1,.11-.43,1.39,1.39,0,0,1,.21-.27l.34-.29.3-.24Z"/></svg>